<svg xmlns="http://www.w3.org/2000/svg" width="139.32" height="46.108" viewBox="0 0 139.32 46.108"><defs><style>.a{fill:#8ecab6;}</style></defs><path class="a" d="M16.228,45.062a23.053,23.053,0,1,1,29.5-17.526,5.264,5.264,0,0,0-.569-.421c-.1-.063-.189-.111-.254-.147l-.083-.042-.027-.016h-.036l-.056-.022a3.476,3.476,0,0,1-2.277-2.106,4.367,4.367,0,0,1-.246-1.095c-.026-.274-.025-.445-.039-.659a19.078,19.078,0,1,0-2.1,8.693,18.818,18.818,0,0,0,1.58-4.281A6.077,6.077,0,0,0,43.9,28.869a2.713,2.713,0,0,1,.6.449,1.328,1.328,0,0,1,.445.946,1.627,1.627,0,0,1-.072.414A23.079,23.079,0,0,1,16.228,45.062Zm-.351-6.667A16.961,16.961,0,1,1,39.169,28.253a7.109,7.109,0,0,0-1.209-.875c-.269-.155-.508-.276-.686-.36l-.212-.1L37,26.9l-.019-.009h-.035a3.533,3.533,0,0,1-2.038-1.816,4.037,4.037,0,0,1-.379-1.664c0-.052.008-.111.008-.124v-.24a11.455,11.455,0,1,0-.789,4.166,5.962,5.962,0,0,0,2.44,1.682l.062.028a6.4,6.4,0,0,1,1.264.744c.486.365.707.772.676.881a.455.455,0,0,1-.06.207,16.986,16.986,0,0,1-22.252,7.644ZM56.93,30.382a3.054,3.054,0,0,1,3.222-3.2,2.451,2.451,0,0,1,2.118.936l-.011-.833,1.135.008v6.249H62.258V32.7a2.484,2.484,0,0,1-2.085.947A3.063,3.063,0,0,1,56.93,30.382Zm3.2-2.2a2.236,2.236,0,0,0,.092,4.464,2.066,2.066,0,0,0,2.036-2.233,2.08,2.08,0,0,0-2.1-2.231Zm9.723,5.408-.765-2.452-.543-1.882L68,31.14l-.776,2.452h-.855l-2.106-6.3h1.2c.19.568.379,1.145.569,1.7.3.9.542,1.79.759,2.681l1.25-4.218h1.007l1.262,4.218A27.667,27.667,0,0,1,71.055,29c.19-.568.392-1.146.58-1.7h1.2l-2.106,6.3Zm12.762-3.258c0-4.338,6.509-4.338,6.509,0a3.254,3.254,0,0,1-6.509,0Zm1.142,0a2.115,2.115,0,1,0,4.222,0h0a2.116,2.116,0,1,0-4.225,0ZM75.4,30.319c0-4.082,5.764-4.312,6.447-.719H80.668a2.13,2.13,0,1,0,0,1.441h1.178a3.266,3.266,0,0,1-6.447-.722Zm16.7.244V27.182h1.137v3.382c0,1.163.29,1.966,1.629,1.99a1.785,1.785,0,0,0,1.9-1.954V27.182h1.139v6.291H96.819v-.825a2.226,2.226,0,0,1-1.989.917C92.92,33.565,92.094,32.367,92.094,30.563ZM54.555,33.546V25.455h1.137v8.091Zm35.011-.75a.711.711,0,0,1,.346-.65.716.716,0,1,1-.346.65Zm-16.5,0a.716.716,0,1,1,.715.679A.712.712,0,0,1,73.065,32.8Zm30.511.675-2.12-2.792-.815.871v1.921H99.5V25.33h1.138v4.863l.967-1.151,1.746-1.862h1.375l-2.539,2.709,2.7,3.476v.107ZM23.053,32.359a9.3,9.3,0,1,1,9.317-9.3,9.306,9.306,0,0,1-9.317,9.3Zm81.158-14.315c0-7.575,11.377-7.575,11.377,0a5.689,5.689,0,0,1-11.377,0Zm1.991,0a3.7,3.7,0,1,0,7.394,0,3.7,3.7,0,1,0-7.394,0Zm-12.934,4v1.486H91.274V9.3h1.994v4.656a4.256,4.256,0,0,1,3.705-1.608,5.37,5.37,0,0,1,5.66,5.632,5.385,5.385,0,0,1-5.7,5.733A4.365,4.365,0,0,1,93.268,22.048Zm.006-4.024a3.625,3.625,0,0,0,3.578,3.922,3.678,3.678,0,0,0,3.792-3.964,3.662,3.662,0,0,0-3.622-3.88h-.05A3.65,3.65,0,0,0,93.275,18.024Zm-16.015-.042a5.371,5.371,0,0,1,5.659-5.632A4.3,4.3,0,0,1,86.644,14l-.02-1.464h2v11h-2V22.048a4.366,4.366,0,0,1-3.661,1.667A5.385,5.385,0,0,1,77.259,17.982Zm5.619-3.88a3.663,3.663,0,0,0-3.623,3.88,3.672,3.672,0,0,0,3.791,3.964,3.634,3.634,0,0,0,3.583-3.922,3.656,3.656,0,0,0-3.7-3.922Zm-28.4,3.88a5.371,5.371,0,0,1,5.66-5.632A4.3,4.3,0,0,1,63.864,14l-.019-1.464h2v11h-2V22.048a4.368,4.368,0,0,1-3.663,1.667A5.385,5.385,0,0,1,54.48,17.982ZM60.1,14.1a3.663,3.663,0,0,0-3.624,3.88,3.675,3.675,0,0,0,3.793,3.964,3.634,3.634,0,0,0,3.583-3.922,3.66,3.66,0,0,0-3.7-3.922Zm57.51,4.348V12.533h1.995V18.45c0,2.034.51,3.435,2.844,3.474a3.121,3.121,0,0,0,3.319-3.407V12.533h1.994v11H125.88V22.09a3.9,3.9,0,0,1-3.484,1.6C119.058,23.695,117.614,21.6,117.614,18.45ZM131.08,20.3V14.121H129.43V12.533h1.649V10.479l1.993-.385v2.439H135.5v1.588h-2.422v6.2c0,1.645,1.018,1.7,2.485,1.564v1.666c-.321.025-.63.038-.925.038C132.481,23.589,131.08,22.856,131.08,20.3Zm-58,3.235V9.3h2V23.534Zm-4.641,0V9.3h1.993V23.534Zm-34.025-.645v0ZM139,11.373V9.8l-.587.869h-.189l-.585-.869.005,1.577h-.325V9.135h.263l.74,1.086.74-1.086h.257v2.239Zm-2.984,0V9.441h-.687V9.135h1.679v.307h-.676v1.932Z" transform="translate(0 0)"/></svg>